<svg xmlns="http://www.w3.org/2000/svg" height="40px" viewBox="0 -960 960 960" width="40px" fill="#f2f2f2"><path d="M454.87-290h50.26v-164.87H670v-50.26H505.13V-670h-50.26v164.87H290v50.26h164.87V-290Zm-252.3 150q-25.79 0-44.18-18.39T140-202.57v-554.86q0-25.79 18.39-44.18T202.57-820h554.86q25.79 0 44.18 18.39T820-757.43v554.86q0 25.79-18.39 44.18T757.43-140H202.57Zm0-50.26h554.86q4.62 0 8.47-3.84 3.84-3.85 3.84-8.47v-554.86q0-4.62-3.84-8.47-3.85-3.84-8.47-3.84H202.57q-4.62 0-8.47 3.84-3.84 3.85-3.84 8.47v554.86q0 4.62 3.84 8.47 3.85 3.84 8.47 3.84Zm-12.31-579.48v579.48-579.48Z"/></svg>